<?xml version="1.0" encoding="UTF-8"?>
<!DOCTYPE svg PUBLIC "-//W3C//DTD SVG 1.1//EN" "http://www.w3.org/Graphics/SVG/1.1/DTD/svg11.dtd">
<svg xmlns="http://www.w3.org/2000/svg" version="1.1" width="1000px" height="1000px" style="shape-rendering:geometricPrecision; text-rendering:geometricPrecision; image-rendering:optimizeQuality; fill-rule:evenodd; clip-rule:evenodd" xmlns:xlink="http://www.w3.org/1999/xlink">
<g><path style="opacity:0.93" fill="#fefffe" d="M 437.5,-0.5 C 478.833,-0.5 520.167,-0.5 561.5,-0.5C 716.505,22.0398 837.339,98.0398 924,227.5C 964.539,291.95 989.706,361.95 999.5,437.5C 999.5,478.833 999.5,520.167 999.5,561.5C 976.912,717.453 900.246,838.619 769.5,925C 705.598,965.023 636.265,989.856 561.5,999.5C 520.167,999.5 478.833,999.5 437.5,999.5C 282.495,976.96 161.661,900.96 75,771.5C 34.461,707.051 9.29435,637.051 -0.5,561.5C -0.5,520.167 -0.5,478.833 -0.5,437.5C 22.0886,281.547 98.7553,160.38 229.5,74C 293.402,33.9774 362.735,9.14406 437.5,-0.5 Z M 490.5,42.5 C 626.543,42.8696 741.21,92.0363 834.5,190C 791.975,292.218 749.308,394.384 706.5,496.5C 661.716,390.323 617.216,283.989 573,177.5C 572.5,177 572,176.5 571.5,176C 533.833,175.333 496.167,175.333 458.5,176C 369.281,388.987 280.447,602.154 192,815.5C 191.503,818.146 191.336,820.813 191.5,823.5C 244.405,823.831 297.238,823.497 350,822.5C 394.405,715.783 438.905,609.116 483.5,502.5C 528.592,609.021 573.425,715.688 618,822.5C 655.762,823.663 693.595,823.829 731.5,823C 797.813,664.876 863.98,506.709 930,348.5C 972.698,476.095 962.698,599.429 900,718.5C 839.162,824.978 750.328,897.478 633.5,936C 497.68,974.835 370.014,956.835 250.5,882C 219.333,861.182 190.833,837.015 165,809.5C 230.049,650.716 295.715,492.049 362,333.5C 363.212,330.166 362.379,327.666 359.5,326C 308.5,325.333 257.5,325.333 206.5,326C 205.376,326.249 204.376,326.749 203.5,327.5C 158.667,435.167 113.833,542.833 69,650.5C 23.9524,514.597 37.6191,384.931 110,261.5C 185.513,143.427 292.68,72.2602 431.5,48C 451.245,45.3284 470.911,43.495 490.5,42.5 Z"/></g>
<g><path style="opacity:0.911" fill="#fefffe" d="M 267.5,175.5 C 320.167,175.5 372.833,175.5 425.5,175.5C 425.699,178.941 425.199,182.274 424,185.5C 406.333,227.833 388.667,270.167 371,312.5C 370.25,313.126 369.416,313.626 368.5,314C 317.167,314.667 265.833,314.667 214.5,314C 213.061,313.009 212.061,311.676 211.5,310C 229.874,265.044 248.541,220.211 267.5,175.5 Z"/></g>
</svg>
