<?xml version="1.0" standalone="no"?>
<!DOCTYPE svg PUBLIC "-//W3C//DTD SVG 20010904//EN"
 "http://www.w3.org/TR/2001/REC-SVG-20010904/DTD/svg10.dtd">
<svg version="1.0" xmlns="http://www.w3.org/2000/svg"
 width="766.000000pt" height="170.000000pt" viewBox="0 0 766.000000 170.000000"
 preserveAspectRatio="xMidYMid meet">

<g transform="translate(0.000000,170.000000) scale(0.100000,-0.100000)"
fill="#000000" stroke="none">
<path d="M1335 1580 c-912 -5 -992 -6 -1021 -22 -43 -24 -88 -70 -107 -110 -8
-18 -59 -274 -112 -568 -105 -582 -110 -627 -66 -688 12 -18 37 -40 54 -50 30
-16 230 -17 3622 -13 3558 3 3590 3 3632 23 56 26 108 88 122 144 6 25 54 282
107 572 67 373 93 539 89 567 -8 55 -46 108 -92 131 -37 19 -101 19 -2638 19
-1430 0 -3045 -2 -3590 -5z m6203 -86 c32 -22 28 -38 -9 -30 -23 4 -3808 10
-3829 5 -3 0 -741 -3 -1640 -5 -899 -3 -1650 -7 -1667 -10 -19 -3 -46 -19 -65
-39 -23 -25 -37 -32 -47 -26 -23 15 24 80 73 102 40 18 152 19 3601 19 3207 0
3563 -2 3583 -16z m-1993 -153 c90 -40 125 -88 125 -172 0 -64 -96 -597 -116
-645 -23 -55 -84 -115 -149 -146 -33 -15 -68 -28 -78 -28 -10 0 -16 -4 -13 -8
3 -4 -64 -8 -149 -8 -85 0 -152 4 -149 8 3 4 -3 8 -13 8 -10 0 -40 13 -68 28
-61 33 -95 87 -95 151 0 68 99 600 122 653 23 54 91 122 146 145 78 34 136 42
262 40 104 -3 133 -7 175 -26z m1743 -1 c89 -39 134 -118 115 -205 l-8 -40
-108 -3 -107 -3 0 45 c0 28 -7 52 -19 67 -17 21 -28 24 -91 24 -68 0 -73 -2
-100 -32 -39 -43 -47 -93 -24 -144 19 -44 67 -87 187 -169 85 -58 127 -100
157 -160 39 -76 19 -192 -46 -268 -34 -41 -141 -102 -176 -102 -11 0 -17 -4
-14 -8 3 -4 -64 -8 -149 -8 -85 0 -152 3 -150 7 3 3 -8 9 -23 12 -39 8 -93 47
-119 86 -19 28 -23 48 -23 107 0 101 6 105 129 102 l96 -3 0 -62 c0 -88 21
-108 111 -107 48 0 71 5 92 21 35 26 56 82 48 126 -8 41 -82 131 -102 123 -7
-3 -16 0 -20 6 -5 7 -2 8 6 3 9 -5 11 -4 6 4 -4 7 -13 10 -19 8 -11 -4 -97 48
-97 59 0 3 20 -9 45 -26 25 -17 45 -29 45 -26 0 10 -91 67 -99 62 -5 -3 -14 1
-21 9 -7 8 -9 15 -5 15 5 0 -11 19 -35 42 -24 23 -51 61 -61 83 -40 86 -12
209 63 282 84 81 163 104 338 100 104 -3 134 -7 178 -27z m-3138 -12 c0 -18 9
-170 20 -338 11 -168 20 -314 20 -324 0 -13 3 -17 10 -10 5 5 71 160 146 344
74 184 138 341 141 348 4 9 47 12 169 12 143 0 164 -2 164 -16 0 -29 -170
-959 -180 -981 -9 -22 -15 -23 -110 -23 -75 0 -102 3 -106 13 -3 8 20 152 51
322 30 169 55 318 55 329 -1 19 -3 18 -16 -6 -8 -16 -71 -166 -139 -335 -68
-168 -130 -310 -137 -315 -19 -12 -206 -10 -213 2 -4 6 -16 156 -27 333 -11
177 -22 324 -24 326 -10 11 -19 -29 -76 -330 -33 -178 -65 -327 -72 -331 -15
-10 -168 -10 -183 0 -9 6 10 128 77 500 50 271 90 497 90 502 0 6 65 10 170
10 l170 0 0 -32z m2292 8 c58 -22 114 -82 124 -131 8 -45 5 -68 -52 -385 -52
-292 -69 -340 -141 -395 -86 -66 -146 -77 -418 -82 -132 -2 -246 0 -252 5 -10
6 7 119 77 503 49 272 90 498 90 502 0 5 118 7 263 5 218 -4 270 -7 309 -22z
m-3892 0 c0 -2 -8 -10 -17 -17 -16 -13 -17 -12 -4 4 13 16 21 21 21 13z m-34
-51 c-13 -35 19 -60 42 -32 6 7 26 13 44 14 18 0 25 -1 16 -4 -22 -6 -23 -29
-3 -49 12 -13 15 -11 23 18 l9 33 6 -40 c9 -53 4 -100 -27 -285 -34 -201 -64
-348 -78 -382 -5 -15 -10 -31 -10 -35 1 -4 -8 -11 -19 -15 -12 -5 -18 -13 -14
-20 4 -7 0 -5 -9 6 -8 10 -20 15 -27 10 -7 -4 -10 -3 -5 4 3 6 1 14 -5 18 -7
4 -9 3 -6 -3 4 -6 -1 -17 -10 -24 -15 -12 -16 -12 -9 6 4 11 4 16 0 12 -4 -4
-12 -3 -18 3 -8 6 -12 3 -13 -11 -1 -12 3 -17 9 -13 6 4 8 3 5 -4 -8 -12 -25
-11 -46 2 -10 6 -12 5 -7 -2 4 -7 4 -12 -1 -12 -8 1 -66 111 -63 120 1 3 -5
23 -15 45 -28 67 -75 199 -75 214 0 12 52 90 233 344 65 92 86 115 73 82z
m-2235 -43 l1 -27 8 30 8 30 1 -27 c1 -33 20 -38 22 -5 1 12 1 24 1 27 0 3 8
6 18 6 10 0 16 -4 14 -8 -3 -4 2 -8 10 -8 28 0 24 -115 -9 -305 -44 -247 -72
-380 -87 -409 -6 -11 -10 -21 -8 -21 2 0 0 -10 -4 -23 -7 -20 -10 -21 -24 -10
-13 11 -14 11 -7 -2 7 -12 6 -13 -6 -3 -19 16 -78 12 -72 -3 6 -17 -14 -27
-23 -12 -14 23 -5 116 32 317 20 108 43 230 50 271 18 98 36 160 47 160 5 0 4
7 -3 15 -10 12 -9 16 4 21 9 3 13 11 9 17 -3 6 -1 7 5 3 7 -4 13 -19 13 -34z
m1403 24 c14 2 16 0 7 -9 -14 -14 -14 -44 -1 -52 6 -3 7 1 4 9 -4 11 0 16 10
16 9 0 16 -6 17 -12 1 -20 5 -32 63 -198 l54 -156 -22 -26 c-11 -14 -46 -61
-76 -104 -30 -44 -57 -81 -60 -84 -3 -3 -32 -40 -65 -84 -32 -43 -61 -74 -63
-67 -2 6 -8 11 -13 11 -6 0 -8 -4 -5 -8 7 -12 -68 -9 -76 3 -5 6 -8 5 -8 -3 0
-7 -5 -10 -10 -7 -6 4 -8 10 -5 15 3 4 -4 6 -15 3 -11 -3 -17 -10 -14 -17 4
-6 -3 -2 -15 9 l-21 21 29 174 c29 171 85 461 95 490 2 8 8 29 12 45 l7 30 6
-25 c8 -30 34 -33 40 -5 7 38 41 42 41 4 0 -10 5 -19 10 -19 6 0 13 0 18 0 4
0 8 3 8 8 5 28 18 52 23 44 3 -5 14 -8 25 -6z m380 3 c-3 -6 1 -10 12 -9 35 4
44 0 44 -18 0 -10 3 -21 6 -25 12 -11 34 5 35 27 1 17 2 16 9 -7 9 -28 6 -35
-76 -174 -24 -42 -40 -42 -50 0 -4 17 -9 37 -10 42 -2 6 -5 20 -8 31 -2 12 -9
39 -15 60 -16 56 -14 64 13 64 14 0 28 5 31 10 3 6 8 10 11 10 3 0 2 -5 -2
-11z m-1220 -31 c-5 -31 -5 -32 10 -14 9 11 16 14 16 8 0 -7 13 -12 30 -12 23
0 30 4 30 20 0 11 5 20 10 20 6 0 10 -9 10 -20 0 -11 5 -20 10 -20 6 0 10 12
10 26 l0 26 36 -22 c39 -23 70 -20 60 6 -3 8 -2 12 4 9 10 -6 3 -63 -10 -80
-4 -5 -11 -26 -15 -45 -4 -19 -11 -41 -15 -50 -4 -8 -16 -35 -25 -60 -10 -25
-23 -58 -30 -75 -7 -16 -34 -85 -60 -152 -25 -68 -50 -125 -55 -128 -11 -7
-18 44 -25 180 -16 299 -14 415 10 415 3 0 2 -15 -1 -32z m693 -5 c-3 -10 -5
-4 -5 12 0 17 2 24 5 18 2 -7 2 -21 0 -30z m2096 11 c10 -19 11 -39 6 -73 -5
-25 -20 -116 -34 -201 -35 -212 -73 -419 -85 -456 -6 -17 -17 -31 -24 -31 -8
0 -12 6 -9 14 4 9 0 11 -11 7 -9 -3 -13 -11 -9 -18 3 -6 1 -6 -8 2 -16 15 -83
17 -74 1 4 -6 -1 -5 -13 2 -18 11 -18 15 -6 83 8 39 14 100 14 136 0 58 -4 70
-29 101 -16 19 -47 43 -69 53 l-41 18 47 25 c93 49 127 100 158 233 10 41 23
83 29 93 11 16 13 14 20 -15 5 -23 9 -27 12 -15 3 9 8 15 12 12 5 -2 6 7 3 20
-3 18 0 25 11 25 24 0 71 -20 79 -33 4 -6 11 -8 15 -3 4 5 2 11 -4 13 -7 3
-13 11 -13 19 0 21 8 17 23 -12z m-1423 2 c0 -2 -7 -9 -15 -16 -12 -10 -15
-10 -15 4 0 9 7 16 15 16 8 0 15 -2 15 -4z m939 -33 c20 -17 21 -24 15 -90
-12 -126 -56 -164 -191 -168 -86 -3 -82 -15 -49 145 13 63 22 118 19 123 -2 4
38 7 90 7 75 0 99 -4 116 -17z m-2519 -573 c2 -149 3 -140 -26 -140 -15 0 -23
4 -19 11 4 6 -2 5 -13 -2 -12 -7 -19 -16 -17 -19 2 -4 -2 -7 -10 -7 -8 0 -12
4 -9 9 3 4 0 8 -5 8 -19 0 -13 58 31 308 l43 243 12 -153 c6 -84 12 -200 13
-258z m576 383 c-3 -10 -21 -103 -40 -208 -20 -104 -38 -201 -41 -215 -4 -14
-7 -30 -9 -37 -1 -7 -5 -16 -9 -19 -4 -4 -7 -15 -7 -25 0 -13 -5 -16 -17 -12
-11 4 -14 3 -9 -5 5 -8 -5 -12 -33 -12 -28 0 -43 -5 -50 -17 -6 -10 -11 -13
-11 -7 0 6 3 14 7 18 4 3 7 14 8 24 2 21 205 532 212 532 2 0 2 -8 -1 -17z
m1890 -266 c28 -32 29 -56 10 -129 -20 -77 -27 -90 -54 -118 -14 -14 -22 -18
-17 -10 5 9 0 7 -14 -4 -15 -14 -20 -15 -16 -5 4 10 -1 15 -14 15 -16 0 -17
-3 -9 -14 16 -19 -13 -12 -30 8 -12 13 -13 13 -9 0 4 -12 -7 -15 -58 -15 l-63
-1 4 51 c2 27 11 97 21 154 l17 103 104 -4 c99 -3 105 -5 128 -31z m-1075
-160 c16 -62 18 -81 8 -93 -10 -12 -9 -13 5 -8 9 3 16 2 16 -4 0 -11 -25 -10
-36 1 -4 3 -1 14 7 24 13 16 13 16 -11 0 -13 -9 -39 -17 -57 -17 -17 0 -35 -4
-38 -10 -4 -6 -15 -4 -29 5 -22 15 -25 14 -51 -20 -15 -20 -29 -34 -32 -32 -2
3 37 69 88 147 105 161 89 161 130 7z m1308 -154 c-13 -16 -27 -32 -31 -37 -5
-6 -8 -6 -8 0 0 11 47 64 57 64 4 0 -4 -12 -18 -27z m-50 -56 c-2 -2 -17 -11
-34 -21 l-30 -17 24 20 c13 12 28 21 34 21 6 0 8 -1 6 -3z m-69 -41 c0 -2 -7
-7 -16 -10 -8 -3 -12 -2 -9 4 6 10 25 14 25 6z"/>
<path d="M5244 1215 c-17 -9 -39 -31 -48 -48 -8 -18 -36 -147 -62 -287 -57
-317 -58 -323 -50 -355 8 -30 56 -55 108 -55 47 0 114 36 127 68 15 38 111
563 111 610 0 54 -26 75 -98 79 -38 3 -67 -2 -88 -12z"/>
<path d="M6094 1212 c-11 -7 -134 -662 -134 -711 0 -23 1 -23 93 -19 103 5
136 17 159 56 21 35 122 594 114 626 -10 39 -54 56 -143 56 -43 0 -83 -4 -89
-8z"/>
<path d="M2506 1212 c-3 -5 1 -9 9 -9 8 0 12 4 9 9 -3 4 -7 8 -9 8 -2 0 -6 -4
-9 -8z"/>
<path d="M3539 1203 c-13 -16 -12 -17 4 -4 16 13 21 21 13 21 -2 0 -10 -8 -17
-17z"/>
<path d="M2875 521 c-3 -5 -2 -12 3 -15 5 -3 9 1 9 9 0 17 -3 19 -12 6z"/>
<path d="M2834 502 c4 -3 14 -7 22 -8 9 -1 13 0 10 4 -4 3 -14 7 -22 8 -9 1
-13 0 -10 -4z"/>
</g>
</svg>
