<?xml version="1.0" encoding="utf-8"?>
<!-- Generator: Adobe Illustrator 25.0.0, SVG Export Plug-In . SVG Version: 6.00 Build 0)  -->
<svg version="1.1" id="Layer_1" xmlns="http://www.w3.org/2000/svg" xmlns:xlink="http://www.w3.org/1999/xlink" x="0px" y="0px"
	 viewBox="0 0 1980 1080" style="enable-background:new 0 0 1980 1080;" xml:space="preserve">
<style type="text/css">
	.st0{fill:#35B050;}
</style>
<g>
	<path class="st0" d="M618.3,475.4h-23.7c-16.5,0-33.6,13.5-38.1,30l-19.2,71.7c-0.9,3.5-4.6,6.4-8.1,6.4H373.6
		c-3.5,0-7.2,2.9-8.1,6.4l-4.6,17.3c-5.4,20.1,6.6,36.5,26.7,36.5h67.2l0,0h71c29.6,0,60.3-24.2,68.3-53.8l29-108.1
		C624,478.3,621.9,475.4,618.3,475.4z"/>
	<path class="st0" d="M396.5,467.1h224.1c3.5,0,7.2-2.9,8.1-6.4v0c7.9-29.6-9.8-53.8-39.4-53.8H352.4c-3.5,0-7.2,2.9-8.1,6.4
		L260.2,727c-0.9,3.5,1.1,6.4,4.7,6.4h47.5c3.5,0,7.2-2.9,8.1-6.4l67.9-253.4C389.3,470,393,467.1,396.5,467.1z"/>
	<path class="st0" d="M893.4,637.4l12.7-47.5c0.9-3.5-1.1-6.4-4.7-6.4H669.8c0.6-0.8,1.1-1.7,1.6-2.5c0.3-0.6,0.6-1.3,0.8-1.9
		l28.3-105.6c0.9-3.5,4.6-6.4,8.1-6.4h163.9c3.5,0,5.6,2.9,4.7,6.4l-4.1,15.3c-0.9,3.5-4.6,6.4-8.1,6.4H709.4
		c-3.5,0-7.2,2.9-8.1,6.4l-4.6,17.3c-5.4,20.1,6.6,36.5,26.7,36.5h144.6c24.2,0,49.4-18.5,58.4-42.1h0.3l14.1-52.7
		c7.9-29.6-9.8-53.8-39.4-53.8H711.9c-29.6,0-60.3,24.2-68.3,53.8L609,589.9c0,0,0,0,0,0l0,0c0,0,0,0,0,0l-0.9,3.4
		c-0.2,0.6-0.2,1.2-0.2,1.8c-4.7,27.2,12.7,48.7,40.5,48.7h236.9C888.9,643.8,892.5,640.9,893.4,637.4z"/>
	<path class="st0" d="M1021.9,467.1H1246c3.5,0,7.2-2.9,8.1-6.4l0,0c7.9-29.6-9.8-53.8-39.4-53.8H977.8c-3.5,0-7.2,2.9-8.1,6.4
		L885.7,727c-0.9,3.5,1.1,6.4,4.7,6.4h47.5c3.5,0,7.2-2.9,8.1-6.4l67.9-253.4C1014.8,470,1018.4,467.1,1021.9,467.1z"/>
	<path class="st0" d="M1248.5,481.8c0.9-3.5-1.1-6.4-4.7-6.4h-23.7c-16.5,0-33.6,13.5-38.1,30l-19.2,71.7c-0.9,3.5-4.6,6.4-8.1,6.4
		H999.1c-3.5,0-7.2,2.9-8.1,6.4l-4.6,17.3c-5.4,20.1,6.6,36.5,26.7,36.5h67.2l0,0h71c29.6,0,60.3-24.2,68.3-53.8L1248.5,481.8z"/>
	<path class="st0" d="M1229.8,643.8h47.5c3.5,0,7.2-2.9,8.1-6.4l60-224.1c0.9-3.5-1.1-6.4-4.7-6.4h-47.5c-3.5,0-7.2,2.9-8.1,6.4
		l-60,224.1C1224.2,640.9,1226.3,643.8,1229.8,643.8z"/>
	<path class="st0" d="M1325.6,398.6h17.3c3.5,0,7.2-2.9,8.1-6.4l10.5-39.1c0.9-3.5-1.1-6.4-4.7-6.4h-47.5c-3.5,0-7.2,2.9-8.1,6.4
		l-2.4,9C1293.5,382.1,1305.6,398.6,1325.6,398.6z"/>
	<path class="st0" d="M1425.6,443.4l-4.6,17.3c-0.9,3.5,1.1,6.4,4.7,6.4h180.7c3.5,0,7.2-2.9,8.1-6.4l12.7-47.4
		c0.9-3.5-1.1-6.4-4.7-6.4l-6,0h-144.6C1451.8,406.9,1431,423.3,1425.6,443.4z"/>
	<path class="st0" d="M1575.2,583.5h-189.1c-3.5,0-5.6-2.9-4.7-6.4l45.6-170.2h0l14.4-53.8c0.9-3.5-1.1-6.4-4.7-6.4h-47.4
		c-3.5,0-7.2,2.9-8.1,6.4l-63.5,236.9c-7.9,29.6,9.8,53.8,39.4,53.8H1559c3.5,0,7.2-2.9,8.1-6.4l12.7-47.5
		C1580.8,586.4,1578.7,583.5,1575.2,583.5z"/>
	<path class="st0" d="M1699,406.9h-47.5c-3.5,0-7.2,2.9-8.1,6.4l-60,224.1c-0.9,3.5,1.1,6.4,4.7,6.4h47.5c3.5,0,7.2-2.9,8.1-6.4
		l60-224.1C1704.6,409.7,1702.5,406.9,1699,406.9z"/>
	<path class="st0" d="M1715.1,346.6h-47.5c-3.5,0-7.2,2.9-8.1,6.4l-2.4,9c-5.4,20.1,6.6,36.5,26.7,36.5h17.3c3.5,0,7.2-2.9,8.1-6.4
		l10.5-39.1C1720.7,349.5,1718.6,346.6,1715.1,346.6z"/>
</g>
</svg>
