<?xml version="1.0" encoding="utf-8"?>
<!-- Generator: Adobe Illustrator 25.0.0, SVG Export Plug-In . SVG Version: 6.00 Build 0)  -->
<svg version="1.1" id="Layer_1" xmlns="http://www.w3.org/2000/svg" xmlns:xlink="http://www.w3.org/1999/xlink" x="0px" y="0px"
	 viewBox="0 0 1980 1080" style="enable-background:new 0 0 1980 1080;" xml:space="preserve">
<style type="text/css">
	.st0{fill:#FFFFFF;}
	.st1{fill:#35B050;}
</style>
<g>
	<g>
		<path class="st0" d="M125,435.7h69.3c19.2,0,28.5,5.2,28.5,20.6c0,13.4-4.9,16-11.6,18v0.3c10.5,1.3,14.4,6.9,14.4,18.8
			c0,17.2-10.2,20.8-24,20.8H125V435.7z M149.1,466.8h42.6c4.4,0,7-1.6,7-6.1c0-4.6-2.6-6.2-7-6.2h-42.6V466.8z M149.1,495.3h43.2
			c5.2,0,8.7-1.2,8.7-5.7c0-5.3-3.5-6.5-8.7-6.5h-43.2V495.3z"/>
		<path class="st0" d="M240.2,435.7h85.9v18.2h-61.8v12.6h58.6v16.3h-58.6v12.6h63.2v18.9h-87.3V435.7z"/>
		<path class="st0" d="M340.6,488.5h24.1c0.1,8.3,3.5,9,10.4,9h29.5c5.1,0,10.3-0.5,10.3-6.6c0-6.8-2.8-7.3-33.8-7.3
			c-36.2,0-40.3-4.3-40.3-23.6c0-14.2,1.3-25.2,31.7-25.2H406c27.8,0,30.4,9.4,30.4,23.2v2.5h-24.1c0-5.7-0.7-8.1-11.7-8.1h-26.7
			c-5.4,0-9.1,1.8-9.1,6.1c0,6.8,2.9,7,28.7,6.9c37.4-0.1,46.1,2.2,46.1,25.1c0,21.1-7.2,24.6-39.1,24.6h-29.2
			c-21.9,0-30.7-4.1-30.7-21.1V488.5z"/>
		<path class="st0" d="M448.7,435.7h91.7v19.5h-33.8v59h-24.1v-59h-33.8V435.7z"/>
		<path class="st0" d="M604.6,435.7h65.6c22.9,0,28.4,11.5,28.4,26.9v6.7c0,11.7-5.1,25.2-22.1,25.2h-47.8v19.7h-24.1V435.7z
			 M628.7,474.9h37.4c5.6,0,7.8-3.7,7.8-8.4v-3c0-5.3-2.6-8.3-9.9-8.3h-35.4V474.9z"/>
		<path class="st0" d="M711.7,435.7h24.1V494h54.1v20.2h-78.2V435.7z"/>
		<path class="st0" d="M834.9,435.7h31.3l43.2,78.5h-26.8l-7.5-13.9h-48.8l-7,13.9h-26.9L834.9,435.7z M835.3,483.4h30.8l-15.6-29.5
			L835.3,483.4z"/>
		<path class="st0" d="M916.2,463.2c0-23,12.9-28.4,34.6-28.4h28.3c34.3,0,38.7,7.4,38.5,29.6h-24.1v-2.2c0-5.6-4.1-7.3-11.3-7.3
			H956c-12.7,0-15.1,6-15.1,15.7v8.5c0,11.4,2.4,15.7,13.8,15.7h25.7c10.8,0,14.1-1.1,14.1-10.8h24.1v7.4c0,13.2-4.8,23.6-29,23.6
			h-38.8c-21.7,0-34.6-5.4-34.6-28.4V463.2z"/>
		<path class="st0" d="M1033.1,435.7h85.9v18.2h-61.8v12.6h58.6v16.3h-58.6v12.6h63.2v18.9h-87.3V435.7z"/>
		<path class="st0" d="M1182.8,435.7h91.7v19.5h-33.8v59h-24.1v-59h-33.8V435.7z"/>
		<path class="st0" d="M1283.3,463.2c0-23,12.9-28.4,34.6-28.4h38.6c21.7,0,34.6,5.4,34.6,28.4v23.4c0,23-12.9,28.4-34.6,28.4h-38.6
			c-21.7,0-34.6-5.4-34.6-28.4V463.2z M1308.1,479.2c0,11.4,2.4,15.7,13.8,15.7h30.8c11.4,0,13.8-4.3,13.8-15.7v-8.5
			c0-9.8-2.4-15.7-15.1-15.7h-28.2c-12.7,0-15.1,6-15.1,15.7V479.2z"/>
		<path class="st0" d="M1451.7,435.7h26.3l30.7,58.3l30.7-58.3h26.3l-42.2,78.5h-29.7L1451.7,435.7z"/>
		<path class="st0" d="M1575.7,435.7h24.1v78.5h-24.1V435.7z"/>
		<path class="st0" d="M1617.4,435.7h85.9v18.2h-61.8v12.6h58.6v16.3h-58.6v12.6h63.2v18.9h-87.3V435.7z"/>
		<path class="st0" d="M1711.9,435.7h23.5l16.7,57.7h0.2l20-57.7h22.3l20,57.7h0.2l16.7-57.7h23.5l-25.5,78.5h-27.7l-18.3-51.8h-0.2
			l-18.3,51.8h-27.7L1711.9,435.7z"/>
		<path class="st1" d="M238.9,565.8h65.6c22.9,0,28.4,11.5,28.4,26.9v6.7c0,11.7-5.1,25.2-22.1,25.2H263v19.7h-24.1V565.8z
			 M263,605.1h37.4c5.6,0,7.8-3.7,7.8-8.4v-3c0-5.3-2.6-8.3-9.9-8.3H263V605.1z M344.2,593.4c0-23,12.9-28.4,34.6-28.4h38.6
			c21.7,0,34.6,5.4,34.6,28.4v23.4c0,23-12.9,28.4-34.6,28.4h-38.6c-21.7,0-34.6-5.4-34.6-28.4V593.4z M369,609.3
			c0,11.4,2.4,15.7,13.8,15.7h30.8c11.4,0,13.8-4.3,13.8-15.7v-8.5c0-9.8-2.4-15.7-15.1-15.7H384c-12.7,0-15.1,6-15.1,15.7V609.3z
			 M465.2,618.6h24.1c0.1,8.3,3.5,9,10.4,9h29.5c5.1,0,10.3-0.5,10.3-6.6c0-6.8-2.8-7.3-33.8-7.3c-36.2,0-40.3-4.3-40.3-23.6
			c0-14.2,1.3-25.2,31.7-25.2h33.6c27.8,0,30.4,9.4,30.4,23.2v2.5h-24.1c0-5.7-0.7-8.1-11.7-8.1h-26.7c-5.4,0-9.1,1.8-9.1,6.1
			c0,6.8,2.9,7,28.7,6.9c37.4-0.1,46.1,2.2,46.1,25.1c0,21.1-7.2,24.6-39.1,24.6h-29.2c-21.9,0-30.7-4.1-30.7-21.1V618.6z
			 M573.3,565.8h91.7v19.5h-33.8v59h-24.1v-59h-33.8V565.8z M729.2,565.8h72.7c18.5,0,23.5,9.2,23.5,23.3v5
			c0,10.5-2.4,16.7-13.4,19.3v0.2c7.2,1.3,13.1,4.4,13.1,17.4v13.3H801v-9.4c0-8.2-2.4-11-9.9-11h-37.8v20.4h-24.1V565.8z
			 M753.2,604.4H793c6.5,0,8.9-2.6,8.9-8.2v-2.6c0-6.9-3.5-8.2-11.1-8.2h-37.6V604.4z M876.4,565.8h31.3l43.2,78.5h-26.8l-7.5-13.9
			h-48.8l-7,13.9h-26.9L876.4,565.8z M876.9,613.5h30.8L892.1,584L876.9,613.5z M957.8,593.4c0-23,12.9-28.4,34.6-28.4h28.3
			c34.3,0,38.7,7.4,38.5,29.6h-24.1v-2.2c0-5.6-4.1-7.3-11.3-7.3h-26.2c-12.7,0-15.1,6-15.1,15.7v8.5c0,11.4,2.4,15.7,13.8,15.7
			h25.7c10.8,0,14.1-1.1,14.1-10.8h24.1v7.4c0,13.2-4.8,23.6-29,23.6h-38.8c-21.7,0-34.6-5.4-34.6-28.4V593.4z M1074.7,565.8h85.9
			V584h-61.8v12.6h58.6v16.3h-58.6v12.6h63.2v18.9h-87.3V565.8z M1228.7,618.6h24.1c0.1,8.3,3.5,9,10.4,9h29.5
			c5.1,0,10.3-0.5,10.3-6.6c0-6.8-2.8-7.3-33.8-7.3c-36.2,0-40.3-4.3-40.3-23.6c0-14.2,1.3-25.2,31.7-25.2h33.6
			c27.8,0,30.4,9.4,30.4,23.2v2.5h-24.1c0-5.7-0.7-8.1-11.7-8.1H1262c-5.4,0-9.1,1.8-9.1,6.1c0,6.8,2.9,7,28.7,6.9
			c37.4-0.1,46.1,2.2,46.1,25.1c0,21.1-7.2,24.6-39.1,24.6h-29.2c-21.9,0-30.7-4.1-30.7-21.1V618.6z M1336.9,565.8h91.7v19.5h-33.8
			v59h-24.1v-59h-33.8V565.8z M1465.9,565.8h31.3l43.2,78.5h-26.8l-7.5-13.9h-48.8l-7,13.9h-26.9L1465.9,565.8z M1466.4,613.5h30.8
			l-15.6-29.5L1466.4,613.5z M1535.2,565.8h91.7v19.5h-33.8v59h-24.1v-59h-33.8V565.8z M1636.1,618.6h24.1c0.1,8.3,3.5,9,10.4,9
			h29.5c5.1,0,10.3-0.5,10.3-6.6c0-6.8-2.8-7.3-33.8-7.3c-36.2,0-40.3-4.3-40.3-23.6c0-14.2,1.3-25.2,31.7-25.2h33.6
			c27.8,0,30.4,9.4,30.4,23.2v2.5h-24.1c0-5.7-0.7-8.1-11.7-8.1h-26.7c-5.4,0-9.1,1.8-9.1,6.1c0,6.8,2.9,7,28.7,6.9
			c37.4-0.1,46.1,2.2,46.1,25.1c0,21.1-7.2,24.6-39.1,24.6h-29.2c-21.9,0-30.7-4.1-30.7-21.1V618.6z"/>
	</g>
</g>
</svg>
