<?xml version="1.0" encoding="utf-8"?>
<!-- Generator: Adobe Illustrator 25.0.0, SVG Export Plug-In . SVG Version: 6.00 Build 0)  -->
<svg version="1.1" id="Layer_1" xmlns="http://www.w3.org/2000/svg" xmlns:xlink="http://www.w3.org/1999/xlink" x="0px" y="0px"
	 viewBox="0 0 1980 1080" style="enable-background:new 0 0 1980 1080;" xml:space="preserve">
<style type="text/css">
	.st0{fill:#fafafa;}
	.st1{fill:url(#SVGID_1_);}
	.st2{filter:url(#Adobe_OpacityMaskFilter);}
	.st3{filter:url(#Adobe_OpacityMaskFilter_1_);}
	.st4{mask:url(#SVGID_2_);fill:url(#SVGID_3_);}
	.st5{opacity:0.7;fill:#fafafa;}
	.st6{filter:url(#Adobe_OpacityMaskFilter_2_);}
	.st7{filter:url(#Adobe_OpacityMaskFilter_3_);}
	.st8{mask:url(#SVGID_4_);fill:url(#SVGID_5_);}
	.st9{filter:url(#Adobe_OpacityMaskFilter_4_);}
	.st10{filter:url(#Adobe_OpacityMaskFilter_5_);}
	.st11{mask:url(#SVGID_6_);fill:url(#SVGID_7_);}
	.st12{filter:url(#Adobe_OpacityMaskFilter_6_);}
	.st13{filter:url(#Adobe_OpacityMaskFilter_7_);}
	.st14{mask:url(#SVGID_8_);fill:url(#SVGID_9_);}
	.st15{filter:url(#Adobe_OpacityMaskFilter_8_);}
	.st16{filter:url(#Adobe_OpacityMaskFilter_9_);}
	.st17{mask:url(#SVGID_10_);fill:url(#SVGID_11_);}
	.st18{filter:url(#Adobe_OpacityMaskFilter_10_);}
	.st19{filter:url(#Adobe_OpacityMaskFilter_11_);}
	.st20{mask:url(#SVGID_12_);fill:url(#SVGID_13_);}
	.st21{filter:url(#Adobe_OpacityMaskFilter_12_);}
	.st22{filter:url(#Adobe_OpacityMaskFilter_13_);}
	.st23{mask:url(#SVGID_14_);fill:url(#SVGID_15_);}
</style>
<g>
	<path class="st0" d="M1677.8,134.4c73.6,0,117.6,60.2,97.9,133.8v0c-2.4,8.8-11.4,15.9-20.1,15.9h-556.7c-8.8,0-17.8,7.1-20.1,15.9
		L1010,929.5c-2.4,8.8-11.4,15.9-20.1,15.9H872c-8.8,0-14-7.1-11.6-15.9l208.8-779.3c2.4-8.8,11.4-15.9,20.1-15.9H1677.8z
		 M1596.3,379.2c11.2-41,53.7-74.5,94.8-74.5h58.9c8.8,0,14,7.1,11.6,15.9l-71.9,268.5c-19.7,73.6-96,133.8-169.6,133.8h-176.4l0,0
		h-166.9c-49.9,0-79.8-40.8-66.4-90.7l11.5-43.1c2.4-8.8,11.4-15.9,20.1-15.9h386.4c8.8,0,17.8-7.1,20.1-15.9L1596.3,379.2z"/>
	<g>
		<linearGradient id="SVGID_1_" gradientUnits="userSpaceOnUse" x1="993.9141" y1="238.4737" x2="1524.6752" y2="769.2348">
			<stop  offset="0" style="stop-color:#fafafa;stop-opacity:5.000000e-02"/>
			<stop  offset="1.532074e-02" style="stop-color:#fafafa;stop-opacity:8.138906e-02"/>
			<stop  offset="5.013367e-02" style="stop-color:#fafafa;stop-opacity:0.1527"/>
			<stop  offset="8.791035e-02" style="stop-color:#fafafa;stop-opacity:0.2301"/>
			<stop  offset="0.1282" style="stop-color:#fafafa;stop-opacity:0.3127"/>
			<stop  offset="0.1718" style="stop-color:#fafafa;stop-opacity:0.4019"/>
			<stop  offset="0.2199" style="stop-color:#fafafa;stop-opacity:0.5005"/>
			<stop  offset="0.275" style="stop-color:#fafafa;stop-opacity:0.6134"/>
			<stop  offset="0.3431" style="stop-color:#fafafa;stop-opacity:0.753"/>
			<stop  offset="0.4637" style="stop-color:#fafafa"/>
			<stop  offset="0.6731" style="stop-color:#fafafa;stop-opacity:0.6134"/>
			<stop  offset="0.7486" style="stop-color:#fafafa;stop-opacity:0.4742"/>
			<stop  offset="0.8024" style="stop-color:#fafafa;stop-opacity:0.3748"/>
			<stop  offset="0.8459" style="stop-color:#fafafa;stop-opacity:0.2945"/>
			<stop  offset="0.8831" style="stop-color:#fafafa;stop-opacity:0.2258"/>
			<stop  offset="0.9161" style="stop-color:#fafafa;stop-opacity:0.1649"/>
			<stop  offset="0.946" style="stop-color:#fafafa;stop-opacity:0.1098"/>
			<stop  offset="0.973" style="stop-color:#fafafa;stop-opacity:5.989712e-02"/>
			<stop  offset="0.9974" style="stop-color:#fafafa;stop-opacity:1.477045e-02"/>
			<stop  offset="1" style="stop-color:#fafafa;stop-opacity:1.000000e-02"/>
		</linearGradient>
		<path class="st1" d="M872,933.6c-0.1,0-0.2,0-0.3,0c0-0.2,0.1-0.5,0.2-1l208.8-779.3c1-3.6,5.3-7.1,8.7-7.1h588.5
			c30.9,0,57,11.7,73.3,33c17.3,22.5,22,53,13.2,85.8c-1,3.6-5.3,7.1-8.7,7.1h-556.7c-14.2,0-27.8,10.6-31.6,24.7L998.6,926.5
			c-1,3.6-5.3,7.1-8.7,7.1H872z M1176.8,711c-19.8,0-36.3-7.4-46.7-20.9c-11-14.3-13.9-33.8-8.3-54.9l11.5-43.1
			c1-3.6,5.3-7.1,8.7-7.1h386.4c14.2,0,27.8-10.6,31.6-24.7l47.7-178.2c4.7-17.3,16.1-33.8,32.1-46.4c15.9-12.5,34.1-19.3,51.3-19.3
			h58.9c0.1,0,0.2,0,0.3,0c0,0.2-0.1,0.5-0.2,1L1678.3,586c-8.9,33.1-30.4,64.5-60.5,88.2c-30,23.7-64.7,36.7-97.7,36.7h-176.4
			c-0.2,0-0.3,0-0.5,0H1176.8z"/>
		<path class="st0" d="M1092.1,156.4L1092.1,156.4L1092.1,156.4 M1677.8,158.1c27.2,0,49.9,10.1,63.9,28.4
			c14.7,19.2,18.8,45.3,11.6,73.9h-554.4c-19.4,0-37.9,14.4-43,33.4L987.6,921.7H887l204.6-763.6H1677.8 M1735,328.4L1666.8,583
			c-4.1,15.3-11.2,30.3-21.1,44.6c-9.7,14-21.6,26.6-35.3,37.4c-13.7,10.8-28.5,19.3-44,25.2c-15.7,6-31.2,9-46.3,9h-176.4
			c-0.2,0-0.5,0-0.7,0h-166.2c-16,0-29.2-5.8-37.3-16.3c-8.7-11.3-10.9-27.2-6.2-44.6l11.1-41.4h384.1c19.4,0,37.9-14.4,43-33.4
			l47.7-178.1c4-14.7,14.2-29.4,28-40.2c13.6-10.7,29.6-16.8,43.9-16.8H1735 M1144.8,595.2L1144.8,595.2L1144.8,595.2 M1677.8,134.4
			h-588.5c-8.8,0-17.8,7.1-20.1,15.9L860.4,929.5c-2.4,8.8,2.9,15.9,11.6,15.9h117.9c8.8,0,17.8-7.1,20.1-15.9l168.7-629.6
			c2.4-8.8,11.4-15.9,20.1-15.9h556.7c8.8,0,17.8-7.1,20.1-15.9v0C1795.4,194.6,1751.3,134.4,1677.8,134.4L1677.8,134.4z
			 M1750,304.7h-58.9c-41,0-83.6,33.5-94.8,74.5l-47.7,178.2c-2.4,8.8-11.4,15.9-20.1,15.9h-386.4c-8.8,0-17.8,7.1-20.1,15.9
			l-11.5,43.1c-13.4,49.9,16.5,90.7,66.4,90.7h166.9l0,0h176.4c73.6,0,149.9-60.2,169.6-133.8l71.9-268.5
			C1764,311.8,1758.8,304.7,1750,304.7L1750,304.7z"/>
	</g>
	<g>
		<path class="st0" d="M565.7,326.8l41.2-144c3.9-13.5,15.9-21.9,31.6-21.9h140.5l-47.5,165.8H565.7z"/>
		<defs>
			<filter id="Adobe_OpacityMaskFilter" filterUnits="userSpaceOnUse" x="593" y="181.6" width="158.5" height="124.5">
				<feFlood  style="flood-color:white;flood-opacity:1" result="back"/>
				<feBlend  in="SourceGraphic" in2="back" mode="normal"/>
			</filter>
		</defs>
		<mask maskUnits="userSpaceOnUse" x="593" y="181.6" width="158.5" height="124.5" id="SVGID_2_">
			<g class="st2">
				<defs>
					<filter id="Adobe_OpacityMaskFilter_1_" filterUnits="userSpaceOnUse" x="593" y="181.6" width="158.5" height="124.5">
						<feFlood  style="flood-color:white;flood-opacity:1" result="back"/>
						<feBlend  in="SourceGraphic" in2="back" mode="normal"/>
					</filter>
				</defs>
				<mask maskUnits="userSpaceOnUse" x="593" y="181.6" width="158.5" height="124.5" id="SVGID_2_">
				</mask>
				<linearGradient id="SVGID_3_" gradientUnits="userSpaceOnUse" x1="647.9161" y1="176.8695" x2="697.4094" y2="312.8513">
					<stop  offset="0" style="stop-color:#E4E4E4"/>
					<stop  offset="9.792157e-02" style="stop-color:#A2A2A2"/>
					<stop  offset="0.2347" style="stop-color:#4C4C4C"/>
					<stop  offset="0.3313" style="stop-color:#fafafa"/>
					<stop  offset="0.378" style="stop-color:#000000"/>
				</linearGradient>
				<path class="st4" d="M593,306.1l33.7-117.6c1.6-5.7,7.3-6.9,11.8-6.9h113.1l-35.6,124.5H593z"/>
			</g>
		</mask>
		<path class="st5" d="M593,306.1l33.7-117.6c1.6-5.7,7.3-6.9,11.8-6.9h113.1l-35.6,124.5H593z"/>
		<polygon class="st0" points="411.3,760 469,558.3 670.7,558.3 613,760 		"/>
		<defs>
			<filter id="Adobe_OpacityMaskFilter_2_" filterUnits="userSpaceOnUse" x="438.7" y="579" width="204.7" height="160.4">
				<feFlood  style="flood-color:white;flood-opacity:1" result="back"/>
				<feBlend  in="SourceGraphic" in2="back" mode="normal"/>
			</filter>
		</defs>
		<mask maskUnits="userSpaceOnUse" x="438.7" y="579" width="204.7" height="160.4" id="SVGID_4_">
			<g class="st6">
				<defs>
					<filter id="Adobe_OpacityMaskFilter_3_" filterUnits="userSpaceOnUse" x="438.7" y="579" width="204.7" height="160.4">
						<feFlood  style="flood-color:white;flood-opacity:1" result="back"/>
						<feBlend  in="SourceGraphic" in2="back" mode="normal"/>
					</filter>
				</defs>
				<mask maskUnits="userSpaceOnUse" x="438.7" y="579" width="204.7" height="160.4" id="SVGID_4_">
				</mask>
				<linearGradient id="SVGID_5_" gradientUnits="userSpaceOnUse" x1="508.6497" y1="570.2264" x2="573.4104" y2="748.1548">
					<stop  offset="0" style="stop-color:#E4E4E4"/>
					<stop  offset="9.792157e-02" style="stop-color:#A2A2A2"/>
					<stop  offset="0.2347" style="stop-color:#4C4C4C"/>
					<stop  offset="0.3313" style="stop-color:#fafafa"/>
					<stop  offset="0.378" style="stop-color:#000000"/>
				</linearGradient>
				<polygon class="st8" points="438.7,739.4 484.6,579 643.4,579 597.5,739.4 				"/>
			</g>
		</mask>
		<polygon class="st5" points="438.7,739.4 484.6,579 643.4,579 597.5,739.4 		"/>
		<path class="st0" d="M205.5,895.5L238,781.9c3.9-13.5,15.9-21.9,31.6-21.9h110.1l-32.5,113.6c-3.9,13.5-15.9,21.9-31.6,21.9H205.5
			z"/>
		<defs>
			<filter id="Adobe_OpacityMaskFilter_4_" filterUnits="userSpaceOnUse" x="232.9" y="780.7" width="119.5" height="94.2">
				<feFlood  style="flood-color:white;flood-opacity:1" result="back"/>
				<feBlend  in="SourceGraphic" in2="back" mode="normal"/>
			</filter>
		</defs>
		<mask maskUnits="userSpaceOnUse" x="232.9" y="780.7" width="119.5" height="94.2" id="SVGID_6_">
			<g class="st9">
				<defs>
					<filter id="Adobe_OpacityMaskFilter_5_" filterUnits="userSpaceOnUse" x="232.9" y="780.7" width="119.5" height="94.2">
						<feFlood  style="flood-color:white;flood-opacity:1" result="back"/>
						<feBlend  in="SourceGraphic" in2="back" mode="normal"/>
					</filter>
				</defs>
				<mask maskUnits="userSpaceOnUse" x="232.9" y="780.7" width="119.5" height="94.2" id="SVGID_6_">
				</mask>
				<linearGradient id="SVGID_7_" gradientUnits="userSpaceOnUse" x1="274.3868" y1="777.6808" x2="310.8442" y2="877.8467">
					<stop  offset="0" style="stop-color:#E4E4E4"/>
					<stop  offset="9.792157e-02" style="stop-color:#A2A2A2"/>
					<stop  offset="0.2347" style="stop-color:#4C4C4C"/>
					<stop  offset="0.3313" style="stop-color:#fafafa"/>
					<stop  offset="0.378" style="stop-color:#000000"/>
				</linearGradient>
				<path class="st11" d="M232.9,874.9l25-87.3c1.6-5.7,7.3-6.9,11.8-6.9h82.7l-25,87.3c-1.6,5.7-7.3,6.9-11.8,6.9H232.9z"/>
			</g>
		</mask>
		<path class="st5" d="M232.9,874.9l25-87.3c1.6-5.7,7.3-6.9,11.8-6.9h82.7l-25,87.3c-1.6,5.7-7.3,6.9-11.8,6.9H232.9z"/>
		<path class="st0" d="M302.9,558.3l41.3-144.4c3.7-13,15.6-22,29.2-22h143.5l-47.6,166.4H302.9z"/>
		<defs>
			<filter id="Adobe_OpacityMaskFilter_6_" filterUnits="userSpaceOnUse" x="330.3" y="412.6" width="159.3" height="125.1">
				<feFlood  style="flood-color:white;flood-opacity:1" result="back"/>
				<feBlend  in="SourceGraphic" in2="back" mode="normal"/>
			</filter>
		</defs>
		<mask maskUnits="userSpaceOnUse" x="330.3" y="412.6" width="159.3" height="125.1" id="SVGID_8_">
			<g class="st12">
				<defs>
					<filter id="Adobe_OpacityMaskFilter_7_" filterUnits="userSpaceOnUse" x="330.3" y="412.6" width="159.3" height="125.1">
						<feFlood  style="flood-color:white;flood-opacity:1" result="back"/>
						<feBlend  in="SourceGraphic" in2="back" mode="normal"/>
					</filter>
				</defs>
				<mask maskUnits="userSpaceOnUse" x="330.3" y="412.6" width="159.3" height="125.1" id="SVGID_8_">
				</mask>
				<linearGradient id="SVGID_9_" gradientUnits="userSpaceOnUse" x1="386.7177" y1="411.4335" x2="435.1398" y2="544.4722">
					<stop  offset="0" style="stop-color:#E4E4E4"/>
					<stop  offset="9.792157e-02" style="stop-color:#A2A2A2"/>
					<stop  offset="0.2347" style="stop-color:#4C4C4C"/>
					<stop  offset="0.3313" style="stop-color:#fafafa"/>
					<stop  offset="0.378" style="stop-color:#000000"/>
				</linearGradient>
				<path class="st14" d="M330.3,537.7l29.5-103.1c3.7-13,15.6-22,29.2-22h100.6l-35.8,125.1H330.3z"/>
			</g>
		</mask>
		<path class="st5" d="M330.3,537.7l29.5-103.1c3.7-13,15.6-22,29.2-22h100.6l-35.8,125.1H330.3z"/>
		<path class="st0" d="M199.6,376.3l31.6-110.6c3.9-13.5,15.9-21.9,31.6-21.9h107l-31.6,110.6c-3.9,13.5-15.9,21.9-31.6,21.9H199.6z
			"/>
		<defs>
			<filter id="Adobe_OpacityMaskFilter_8_" filterUnits="userSpaceOnUse" x="227" y="264.5" width="115.6" height="91.1">
				<feFlood  style="flood-color:white;flood-opacity:1" result="back"/>
				<feBlend  in="SourceGraphic" in2="back" mode="normal"/>
			</filter>
		</defs>
		<mask maskUnits="userSpaceOnUse" x="227" y="264.5" width="115.6" height="91.1" id="SVGID_10_">
			<g class="st15">
				<defs>
					<filter id="Adobe_OpacityMaskFilter_9_" filterUnits="userSpaceOnUse" x="227" y="264.5" width="115.6" height="91.1">
						<feFlood  style="flood-color:white;flood-opacity:1" result="back"/>
						<feBlend  in="SourceGraphic" in2="back" mode="normal"/>
					</filter>
				</defs>
				<mask maskUnits="userSpaceOnUse" x="227" y="264.5" width="115.6" height="91.1" id="SVGID_10_">
				</mask>
				<linearGradient id="SVGID_11_" gradientUnits="userSpaceOnUse" x1="267.1357" y1="261.6571" x2="302.3621" y2="358.4406">
					<stop  offset="0" style="stop-color:#E4E4E4"/>
					<stop  offset="9.792157e-02" style="stop-color:#A2A2A2"/>
					<stop  offset="0.2347" style="stop-color:#4C4C4C"/>
					<stop  offset="0.3313" style="stop-color:#fafafa"/>
					<stop  offset="0.378" style="stop-color:#000000"/>
				</linearGradient>
				<path class="st17" d="M227,355.6l24.1-84.2c1.6-5.7,7.3-6.9,11.8-6.9h79.7l-24.1,84.2c-1.6,5.7-7.3,6.9-11.8,6.9H227z"/>
			</g>
		</mask>
		<path class="st5" d="M227,355.6l24.1-84.2c1.6-5.7,7.3-6.9,11.8-6.9h79.7l-24.1,84.2c-1.6,5.7-7.3,6.9-11.8,6.9H227z"/>
		<path class="st0" d="M645.5,573.8L720.9,310h263.7l-68.9,240.7c-3.9,13.6-16.4,23-30.6,23H645.5z"/>
		<defs>
			<filter id="Adobe_OpacityMaskFilter_10_" filterUnits="userSpaceOnUse" x="672.8" y="330.7" width="284.5" height="222.5">
				<feFlood  style="flood-color:white;flood-opacity:1" result="back"/>
				<feBlend  in="SourceGraphic" in2="back" mode="normal"/>
			</filter>
		</defs>
		<mask maskUnits="userSpaceOnUse" x="672.8" y="330.7" width="284.5" height="222.5" id="SVGID_12_">
			<g class="st18">
				<defs>
					<filter id="Adobe_OpacityMaskFilter_11_" filterUnits="userSpaceOnUse" x="672.8" y="330.7" width="284.5" height="222.5">
						<feFlood  style="flood-color:white;flood-opacity:1" result="back"/>
						<feBlend  in="SourceGraphic" in2="back" mode="normal"/>
					</filter>
				</defs>
				<mask maskUnits="userSpaceOnUse" x="672.8" y="330.7" width="284.5" height="222.5" id="SVGID_12_">
				</mask>
				<linearGradient id="SVGID_13_" gradientUnits="userSpaceOnUse" x1="770.1324" y1="318.4413" x2="857.8717" y2="559.5031">
					<stop  offset="0" style="stop-color:#E4E4E4"/>
					<stop  offset="9.792157e-02" style="stop-color:#A2A2A2"/>
					<stop  offset="0.2347" style="stop-color:#4C4C4C"/>
					<stop  offset="0.3313" style="stop-color:#fafafa"/>
					<stop  offset="0.378" style="stop-color:#000000"/>
				</linearGradient>
				<path class="st20" d="M672.8,553.2l63.7-222.5h220.8l-57.1,199.4c-3.9,13.6-16.4,23-30.6,23H672.8z"/>
			</g>
		</mask>
		<path class="st5" d="M672.8,553.2l63.7-222.5h220.8l-57.1,199.4c-3.9,13.6-16.4,23-30.6,23H672.8z"/>
		<path class="st0" d="M529.2,945.6l59.5-207.8h207.8l-53.3,186.3c-3.6,12.7-15.3,21.5-28.6,21.5H529.2z"/>
		<defs>
			<filter id="Adobe_OpacityMaskFilter_12_" filterUnits="userSpaceOnUse" x="556.6" y="758.4" width="212.6" height="166.5">
				<feFlood  style="flood-color:white;flood-opacity:1" result="back"/>
				<feBlend  in="SourceGraphic" in2="back" mode="normal"/>
			</filter>
		</defs>
		<mask maskUnits="userSpaceOnUse" x="556.6" y="758.4" width="212.6" height="166.5" id="SVGID_14_">
			<g class="st21">
				<defs>
					<filter id="Adobe_OpacityMaskFilter_13_" filterUnits="userSpaceOnUse" x="556.6" y="758.4" width="212.6" height="166.5">
						<feFlood  style="flood-color:white;flood-opacity:1" result="back"/>
						<feBlend  in="SourceGraphic" in2="back" mode="normal"/>
					</filter>
				</defs>
				<mask maskUnits="userSpaceOnUse" x="556.6" y="758.4" width="212.6" height="166.5" id="SVGID_14_">
				</mask>
				<linearGradient id="SVGID_15_" gradientUnits="userSpaceOnUse" x1="629.2593" y1="749.3422" x2="694.4885" y2="928.5579">
					<stop  offset="0" style="stop-color:#E4E4E4"/>
					<stop  offset="9.792157e-02" style="stop-color:#A2A2A2"/>
					<stop  offset="0.2347" style="stop-color:#4C4C4C"/>
					<stop  offset="0.3313" style="stop-color:#fafafa"/>
					<stop  offset="0.378" style="stop-color:#000000"/>
				</linearGradient>
				<path class="st23" d="M556.6,925l47.7-166.5h164.9l-41.5,145c-3.6,12.7-15.3,21.5-28.6,21.5H556.6z"/>
			</g>
		</mask>
		<path class="st5" d="M556.6,925l47.7-166.5h164.9l-41.5,145c-3.6,12.7-15.3,21.5-28.6,21.5H556.6z"/>
	</g>
</g>
</svg>
