<?xml version="1.0" encoding="utf-8"?>
<!-- Generator: Adobe Illustrator 25.0.0, SVG Export Plug-In . SVG Version: 6.00 Build 0)  -->
<svg version="1.1" id="Layer_1" xmlns="http://www.w3.org/2000/svg" xmlns:xlink="http://www.w3.org/1999/xlink" x="0px" y="0px"
	 viewBox="0 0 1980 1080" style="enable-background:new 0 0 1980 1080;" xml:space="preserve">
<style type="text/css">
	.st0{fill:#35B050;}
</style>
<path class="st0" d="M1332.7,151.5c70.5,0,112.7,57.7,93.8,128.1v0c-2.3,8.4-10.9,15.2-19.3,15.2H873.8c-8.4,0-17,6.8-19.3,15.2
	L692.9,913.3c-2.3,8.4-10.9,15.2-19.3,15.2H560.7c-8.4,0-13.4-6.8-11.1-15.2l200-746.6c2.3-8.4,10.9-15.2,19.3-15.2H1332.7z
	 M1254.6,386c10.7-39.3,51.5-71.3,90.8-71.3h56.5c8.4,0,13.4,6.8,11.1,15.2l-68.9,257.2c-18.9,70.5-92,128.1-162.5,128.1h-169l0,0
	H852.7c-47.8,0-76.4-39.1-63.6-86.9l11.1-41.3c2.3-8.4,10.9-15.2,19.3-15.2h370.2c8.4,0,17-6.8,19.3-15.2L1254.6,386z"/>
</svg>
