<svg width="786" height="786" viewBox="0 0 786 786" fill="none" xmlns="http://www.w3.org/2000/svg">
<path d="M419.5 166.5L378.3 22.5001C374.4 9.00011 362.4 0.600098 346.7 0.600098H206.2L253.7 166.4H419.5V166.5Z" fill="#7c3aed"/>
<path opacity="0.7" d="M392.2 145.8L358.5 28.2C356.9 22.5 351.2 21.3 346.7 21.3H233.6L269.2 145.8H392.2Z" fill="#7c3aed"/>
<path d="M573.9 599.7L516.2 398H314.5L372.2 599.7H573.9Z" fill="#7c3aed"/>
<path opacity="0.7" d="M546.5 579.1L500.6 418.7H341.8L387.7 579.1H546.5Z" fill="#7c3aed"/>
<path d="M779.7 735.2L747.2 621.6C743.3 608.1 731.3 599.7 715.6 599.7H605.5L638 713.3C641.9 726.8 653.9 735.2 669.6 735.2H779.7Z" fill="#7c3aed"/>
<path opacity="0.7" d="M752.3 714.6L727.3 627.3C725.7 621.6 720 620.4 715.5 620.4H632.8L657.8 707.7C659.4 713.4 665.1 714.6 669.6 714.6H752.3Z" fill="#7c3aed"/>
<path d="M682.3 398L641 253.6C637.3 240.6 625.4 231.6 611.8 231.6H468.3L515.9 398H682.3Z" fill="#7c3aed"/>
<path opacity="0.7" d="M654.9 377.4L625.4 274.3C621.7 261.3 609.8 252.3 596.2 252.3H495.6L531.4 377.4H654.9Z" fill="#7c3aed"/>
<path d="M785.6 216L754 105.4C750.1 91.9 738.1 83.5 722.4 83.5H615.4L647 194.1C650.9 207.6 662.9 216 678.6 216H785.6Z" fill="#7c3aed"/>
<path opacity="0.7" d="M758.2 195.3L734.1 111.1C732.5 105.4 726.8 104.2 722.3 104.2H642.6L666.7 188.4C668.3 194.1 674 195.3 678.5 195.3H758.2Z" fill="#7c3aed"/>
<path d="M339.7 413.5L264.3 149.7H0.600006L69.5 390.4C73.4 404 85.9 413.4 100.1 413.4H339.7V413.5Z" fill="#7c3aed"/>
<path opacity="0.7" d="M312.4 392.9L248.7 170.4H27.9L85 369.8C88.9 383.4 101.4 392.8 115.6 392.8H312.4V392.9Z" fill="#7c3aed"/>
<path d="M456 785.3L396.5 577.5H188.7L242 763.8C245.6 776.5 257.3 785.3 270.6 785.3H456Z" fill="#7c3aed"/>
<path opacity="0.7" d="M428.6 764.7L380.9 598.2H216L257.5 743.2C261.1 755.9 272.8 764.7 286.1 764.7H428.6Z" fill="#7c3aed"/>
</svg>
