<?xml version="1.0" encoding="utf-8"?>
<!-- Generator: Adobe Illustrator 25.0.0, SVG Export Plug-In . SVG Version: 6.00 Build 0)  -->
<svg version="1.1" id="Layer_1" xmlns="http://www.w3.org/2000/svg" xmlns:xlink="http://www.w3.org/1999/xlink" x="0px" y="0px"
	 viewBox="0 0 1980 1080" style="enable-background:new 0 0 1980 1080;" xml:space="preserve">
<style type="text/css">
	.st0{fill:none;}
	.st1{fill:#35B050;}
	.st2{fill:#FFFFFF;}
</style>
<g>
	<path class="st0" d="M1167,685.1h-19.4l-1.5,5.6h19.4c2,0,3.4-0.7,4-2.8C1170,685.8,1169.1,685.1,1167,685.1z"/>
	<polygon class="st0" points="1317.8,698.2 1331.8,698.2 1328.3,684.8 	"/>
	<path class="st0" d="M1163.8,698.1h-19.7l-1.5,5.6h19.7c2.4,0,4.1-0.5,4.7-2.6C1167.6,698.6,1166.2,698.1,1163.8,698.1z"/>
	<path class="st1" d="M618.3,475.4h-23.7c-16.5,0-33.6,13.5-38.1,30l-19.2,71.7c-0.9,3.5-4.6,6.4-8.1,6.4H373.6
		c-3.5,0-7.2,2.9-8.1,6.4l-4.6,17.3c-5.4,20.1,6.6,36.5,26.7,36.5h67.2l0,0h71c29.6,0,60.3-24.2,68.3-53.8l29-108.1
		C624,478.3,621.9,475.4,618.3,475.4z"/>
	<path class="st1" d="M396.5,467.1h224.1c3.5,0,7.2-2.9,8.1-6.4v0c7.9-29.6-9.8-53.8-39.4-53.8H352.4c-3.5,0-7.2,2.9-8.1,6.4
		L260.2,727c-0.9,3.5,1.1,6.4,4.7,6.4h47.5c3.5,0,7.2-2.9,8.1-6.4l67.9-253.4C389.3,470,393,467.1,396.5,467.1z"/>
	<path class="st1" d="M893.4,637.4l12.7-47.5c0.9-3.5-1.1-6.4-4.7-6.4H669.8c0.6-0.8,1.1-1.7,1.6-2.5c0.3-0.6,0.6-1.3,0.8-1.9
		l28.3-105.6c0.9-3.5,4.6-6.4,8.1-6.4h163.9c3.5,0,5.6,2.9,4.7,6.4l-4.1,15.3c-0.9,3.5-4.6,6.4-8.1,6.4H709.4
		c-3.5,0-7.2,2.9-8.1,6.4l-4.6,17.3c-5.4,20.1,6.6,36.5,26.7,36.5h144.6c24.2,0,49.4-18.5,58.4-42.1h0.3l14.1-52.7
		c7.9-29.6-9.8-53.8-39.4-53.8H711.9c-29.6,0-60.3,24.2-68.3,53.8L609,589.9c0,0,0,0,0,0l0,0c0,0,0,0,0,0l-0.9,3.4
		c-0.2,0.6-0.2,1.2-0.2,1.8c-4.7,27.2,12.7,48.7,40.5,48.7h236.9C888.9,643.8,892.5,640.9,893.4,637.4z"/>
	<path class="st1" d="M1021.9,467.1H1246c3.5,0,7.2-2.9,8.1-6.4l0,0c7.9-29.6-9.8-53.8-39.4-53.8H977.8c-3.5,0-7.2,2.9-8.1,6.4
		L885.7,727c-0.9,3.5,1.1,6.4,4.7,6.4h47.5c3.5,0,7.2-2.9,8.1-6.4l67.9-253.4C1014.8,470,1018.4,467.1,1021.9,467.1z"/>
	<path class="st1" d="M1248.5,481.8c0.9-3.5-1.1-6.4-4.7-6.4h-23.7c-16.5,0-33.6,13.5-38.1,30l-19.2,71.7c-0.9,3.5-4.6,6.4-8.1,6.4
		H999.1c-3.5,0-7.2,2.9-8.1,6.4l-4.6,17.3c-5.4,20.1,6.6,36.5,26.7,36.5h67.2l0,0h71c29.6,0,60.3-24.2,68.3-53.8L1248.5,481.8z"/>
	<path class="st1" d="M1229.8,643.8h47.5c3.5,0,7.2-2.9,8.1-6.4l60-224.1c0.9-3.5-1.1-6.4-4.7-6.4h-47.5c-3.5,0-7.2,2.9-8.1,6.4
		l-60,224.1C1224.2,640.9,1226.3,643.8,1229.8,643.8z"/>
	<path class="st1" d="M1325.6,398.6h17.3c3.5,0,7.2-2.9,8.1-6.4l10.5-39.1c0.9-3.5-1.1-6.4-4.7-6.4h-47.5c-3.5,0-7.2,2.9-8.1,6.4
		l-2.4,9C1293.5,382.1,1305.6,398.6,1325.6,398.6z"/>
	<path class="st1" d="M1425.6,443.4l-4.6,17.3c-0.9,3.5,1.1,6.4,4.7,6.4h180.7c3.5,0,7.2-2.9,8.1-6.4l12.7-47.4
		c0.9-3.5-1.1-6.4-4.7-6.4l-6,0h-144.6C1451.8,406.9,1431,423.3,1425.6,443.4z"/>
	<path class="st1" d="M1575.2,583.5h-189.1c-3.5,0-5.6-2.9-4.7-6.4l45.6-170.2h0l14.4-53.8c0.9-3.5-1.1-6.4-4.7-6.4h-47.4
		c-3.5,0-7.2,2.9-8.1,6.4l-63.5,236.9c-7.9,29.6,9.8,53.8,39.4,53.8H1559c3.5,0,7.2-2.9,8.1-6.4l12.7-47.5
		C1580.8,586.4,1578.7,583.5,1575.2,583.5z"/>
	<path class="st1" d="M1699,406.9h-47.5c-3.5,0-7.2,2.9-8.1,6.4l-60,224.1c-0.9,3.5,1.1,6.4,4.7,6.4h47.5c3.5,0,7.2-2.9,8.1-6.4
		l60-224.1C1704.6,409.7,1702.5,406.9,1699,406.9z"/>
	<path class="st1" d="M1715.1,346.6h-47.5c-3.5,0-7.2,2.9-8.1,6.4l-2.4,9c-5.4,20.1,6.6,36.5,26.7,36.5h17.3c3.5,0,7.2-2.9,8.1-6.4
		l10.5-39.1C1720.7,349.5,1718.6,346.6,1715.1,346.6z"/>
	<polygon class="st2" points="1060.8,676.5 1042.2,699.5 1036,676.5 1019.1,676.5 1009.6,712.2 1020.2,712.2 1027.1,686.5 
		1027.2,686.5 1034.7,712.2 1042.9,712.2 1064.2,686.5 1064.3,686.5 1057.4,712.2 1068.1,712.2 1077.7,676.5 	"/>
	<polygon class="st2" points="1133.6,676.5 1119.4,676.5 1105,689 1097.2,676.5 1083,676.5 1094.5,694.3 1072.2,712.2 1086.9,712.2 
		1102.2,699.2 1110.5,712.2 1125.3,712.2 1112.5,694.3 	"/>
	<path class="st2" d="M1170.5,676.5h-31.6l-9.6,35.8h34.9c6.3,0,11.4-1.6,13.5-9.5c1.4-5.4,0.4-8-4.3-8.6l0-0.1
		c3.3-0.9,5.8-2.1,7.5-8.2C1182.9,678.8,1179.3,676.5,1170.5,676.5z M1166.9,701c-0.6,2.1-2.3,2.6-4.7,2.6h-19.7l1.5-5.6h19.7
		C1166.2,698.1,1167.6,698.6,1166.9,701z M1169.5,687.9c-0.5,2-1.9,2.8-4,2.8h-19.4l1.5-5.6h19.4
		C1169.1,685.1,1170,685.8,1169.5,687.9z"/>
	<path class="st2" d="M1245.1,676.1h-15.3c-13.8,0-15.8,5-17.5,11.5c-2.4,8.8-1,10.8,15.5,10.8c14.1,0,15.4,0.2,14.5,3.3
		c-0.7,2.8-3.2,3-5.5,3h-13.4c-3.2,0-4.6-0.3-3.6-4.1h-11l-0.7,2.5c-2.1,7.8,1.4,9.6,11.4,9.6h13.3c14.6,0,18.3-1.6,20.8-11.2
		c2.8-10.4-0.9-11.5-17.9-11.4c-11.8,0-13.1-0.1-12.3-3.2c0.5-1.9,2.4-2.8,4.9-2.8h12.2c5,0,5,1.1,4.3,3.7h11l0.3-1.1
		C1257.8,680.4,1257.8,676.1,1245.1,676.1z"/>
	<polygon class="st2" points="1306.4,676.5 1264.5,676.5 1262.2,685.3 1277.6,685.3 1270.4,712.2 1281.4,712.2 1288.6,685.3 
		1304,685.3 	"/>
	<path class="st2" d="M1323.4,676.5l-29,35.8h12.3l4.9-6.3h22.2l1.7,6.3h12.2l-10.1-35.8H1323.4z M1317.8,698.2l10.5-13.4l3.5,13.4
		H1317.8z"/>
	<polygon class="st2" points="1396.8,676.5 1355,676.5 1352.6,685.3 1368,685.3 1360.8,712.2 1371.8,712.2 1379,685.3 1394.4,685.3 
			"/>
	<polygon class="st2" points="1402.2,676.5 1392.6,712.2 1403.6,712.2 1413.2,676.5 	"/>
	<path class="st2" d="M1450.5,676.1h-15.3c-13.8,0-15.8,5-17.5,11.5c-2.4,8.8-1,10.8,15.5,10.8c14.1,0,15.4,0.2,14.5,3.3
		c-0.7,2.8-3.2,3-5.5,3h-13.4c-3.2,0-4.6-0.3-3.6-4.1h-11l-0.7,2.5c-2.1,7.8,1.4,9.6,11.4,9.6h13.3c14.6,0,18.3-1.6,20.8-11.2
		c2.8-10.4-0.9-11.5-17.9-11.4c-11.8,0-13.1-0.1-12.3-3.2c0.5-1.9,2.4-2.8,4.9-2.8h12.2c5,0,5,1.1,4.3,3.7h11l0.3-1.1
		C1463.2,680.4,1463.1,676.1,1450.5,676.1z"/>
	<polygon class="st2" points="1511.7,676.5 1469.9,676.5 1467.5,685.3 1482.9,685.3 1475.7,712.2 1486.7,712.2 1493.9,685.3 
		1509.3,685.3 	"/>
	<polygon class="st2" points="1507.5,712.2 1518.5,712.2 1528.1,676.5 1517.1,676.5 	"/>
	<path class="st2" d="M1564.1,676.1h-12.9c-9.9,0-16.4,2.5-19.2,13l-2.9,10.7c-2.8,10.5,2.4,13,12.3,13h17.7
		c11,0,14.5-4.7,16.1-10.8l0.9-3.4h-11c-1.2,4.4-2.8,4.9-7.8,4.9h-11.7c-5.2,0-5.7-2-4.4-7.2l1-3.9c1.2-4.4,3-7.2,8.8-7.2h12
		c3.3,0,4.9,0.7,4.3,3.3l-0.3,1h11C1580.8,679.4,1579.7,676.1,1564.1,676.1z"/>
	<path class="st2" d="M1617.9,676.1h-15.3c-13.8,0-15.8,5-17.5,11.5c-2.4,8.8-1,10.8,15.5,10.8c14.1,0,15.4,0.2,14.5,3.3
		c-0.7,2.8-3.2,3-5.5,3h-13.4c-3.2,0-4.6-0.3-3.6-4.1h-11l-0.7,2.5c-2.1,7.8,1.4,9.6,11.4,9.6h13.3c14.6,0,18.3-1.6,20.8-11.2
		c2.8-10.4-0.9-11.5-17.9-11.4c-11.8,0-13.1-0.1-12.3-3.2c0.5-1.9,2.4-2.8,4.9-2.8h12.2c5,0,5,1.1,4.3,3.7h11l0.3-1.1
		C1630.6,680.4,1630.6,676.1,1617.9,676.1z"/>
</g>
</svg>
