<svg width="1980" height="1080" viewBox="0 0 1980 1080" fill="none" xmlns="http://www.w3.org/2000/svg">
<g opacity="0.15">
<path d="M1677.8 134.4C1751.4 134.4 1795.4 194.6 1775.7 268.2C1773.3 277 1764.3 284.1 1755.6 284.1H1198.9C1190.1 284.1 1181.1 291.2 1178.8 300L1010 929.5C1007.6 938.3 998.6 945.4 989.9 945.4H872C863.2 945.4 858 938.3 860.4 929.5L1069.2 150.2C1071.6 141.4 1080.6 134.3 1089.3 134.3H1677.8V134.4ZM1596.3 379.2C1607.5 338.2 1650 304.7 1691.1 304.7H1750C1758.8 304.7 1764 311.8 1761.6 320.6L1689.7 589.1C1670 662.7 1593.7 722.9 1520.1 722.9H1343.7H1176.8C1126.9 722.9 1097 682.1 1110.4 632.2L1121.9 589.1C1124.3 580.3 1133.3 573.2 1142 573.2H1528.4C1537.2 573.2 1546.2 566.1 1548.5 557.3L1596.3 379.2Z" fill="#35B050"/>
<path d="M872 933.6C871.9 933.6 871.8 933.6 871.7 933.6C871.7 933.4 871.8 933.1 871.9 932.6L1080.7 153.3C1081.7 149.7 1086 146.2 1089.4 146.2H1677.9C1708.8 146.2 1734.9 157.9 1751.2 179.2C1768.5 201.7 1773.2 232.2 1764.4 265C1763.4 268.6 1759.1 272.1 1755.7 272.1H1199C1184.8 272.1 1171.2 282.7 1167.4 296.8L998.6 926.5C997.6 930.1 993.3 933.6 989.9 933.6H872ZM1176.8 711C1157 711 1140.5 703.6 1130.1 690.1C1119.1 675.8 1116.2 656.3 1121.8 635.2L1133.3 592.1C1134.3 588.5 1138.6 585 1142 585H1528.4C1542.6 585 1556.2 574.4 1560 560.3L1607.7 382.1C1612.4 364.8 1623.8 348.3 1639.8 335.7C1655.7 323.2 1673.9 316.4 1691.1 316.4H1750C1750.1 316.4 1750.2 316.4 1750.3 316.4C1750.3 316.6 1750.2 316.9 1750.1 317.4L1678.3 586C1669.4 619.1 1647.9 650.5 1617.8 674.2C1587.8 697.9 1553.1 710.9 1520.1 710.9H1343.7C1343.5 710.9 1343.4 710.9 1343.2 710.9H1176.8V711Z" fill="url(#paint0_linear_8_2)"/>
<path d="M1677.8 158.1C1705 158.1 1727.7 168.2 1741.7 186.5C1756.4 205.7 1760.5 231.8 1753.3 260.4H1198.9C1179.5 260.4 1161 274.8 1155.9 293.8L987.6 921.7H887L1091.6 158.1H1677.8ZM1735 328.4L1666.8 583C1662.7 598.3 1655.6 613.3 1645.7 627.6C1636 641.6 1624.1 654.2 1610.4 665C1596.7 675.8 1581.9 684.3 1566.4 690.2C1550.7 696.2 1535.2 699.2 1520.1 699.2H1343.7C1343.5 699.2 1343.2 699.2 1343 699.2H1176.8C1160.8 699.2 1147.6 693.4 1139.5 682.9C1130.8 671.6 1128.6 655.7 1133.3 638.3L1144.4 596.9H1528.5C1547.9 596.9 1566.4 582.5 1571.5 563.5L1619.2 385.4C1623.2 370.7 1633.4 356 1647.2 345.2C1660.8 334.5 1676.8 328.4 1691.1 328.4H1735ZM1677.8 134.4H1089.3C1080.5 134.4 1071.5 141.5 1069.2 150.3L860.4 929.5C858 938.3 863.3 945.4 872 945.4H989.9C998.7 945.4 1007.7 938.3 1010 929.5L1178.7 299.9C1181.1 291.1 1190.1 284 1198.8 284H1755.5C1764.3 284 1773.3 276.9 1775.6 268.1C1795.4 194.6 1751.3 134.4 1677.8 134.4ZM1750 304.7H1691.1C1650.1 304.7 1607.5 338.2 1596.3 379.2L1548.6 557.4C1546.2 566.2 1537.2 573.3 1528.5 573.3H1142.1C1133.3 573.3 1124.3 580.4 1122 589.2L1110.5 632.3C1097.1 682.2 1127 723 1176.9 723H1343.8H1520.2C1593.8 723 1670.1 662.8 1689.8 589.2L1761.7 320.7C1764 311.8 1758.8 304.7 1750 304.7Z" fill="#35B050"/>
<path d="M565.7 326.8L606.9 182.8C610.8 169.3 622.8 160.9 638.5 160.9H779L731.5 326.7H565.7V326.8Z" fill="#35B050"/>
<path opacity="0.7" d="M593 306.1L626.7 188.5C628.3 182.8 634 181.6 638.5 181.6H751.6L716 306.1H593Z" fill="#35B050"/>
<path d="M411.3 760L469 558.3H670.7L613 760H411.3Z" fill="#35B050"/>
<path opacity="0.7" d="M438.7 739.4L484.6 579H643.4L597.5 739.4H438.7Z" fill="#35B050"/>
<path d="M205.5 895.5L238 781.9C241.9 768.4 253.9 760 269.6 760H379.7L347.2 873.6C343.3 887.1 331.3 895.5 315.6 895.5H205.5Z" fill="#35B050"/>
<path opacity="0.7" d="M232.9 874.9L257.9 787.6C259.5 781.9 265.2 780.7 269.7 780.7H352.4L327.4 868C325.8 873.7 320.1 874.9 315.6 874.9H232.9Z" fill="#35B050"/>
<path d="M302.9 558.3L344.2 413.9C347.9 400.9 359.8 391.9 373.4 391.9H516.9L469.3 558.3H302.9Z" fill="#35B050"/>
<path opacity="0.7" d="M330.3 537.7L359.8 434.6C363.5 421.6 375.4 412.6 389 412.6H489.6L453.8 537.7H330.3Z" fill="#35B050"/>
<path d="M199.6 376.3L231.2 265.7C235.1 252.2 247.1 243.8 262.8 243.8H369.8L338.2 354.4C334.3 367.9 322.3 376.3 306.6 376.3H199.6Z" fill="#35B050"/>
<path opacity="0.7" d="M227 355.6L251.1 271.4C252.7 265.7 258.4 264.5 262.9 264.5H342.6L318.5 348.7C316.9 354.4 311.2 355.6 306.7 355.6H227Z" fill="#35B050"/>
<path d="M645.5 573.8L720.9 310H984.6L915.7 550.7C911.8 564.3 899.3 573.7 885.1 573.7H645.5V573.8Z" fill="#35B050"/>
<path opacity="0.7" d="M672.8 553.2L736.5 330.7H957.3L900.2 530.1C896.3 543.7 883.8 553.1 869.6 553.1H672.8V553.2Z" fill="#35B050"/>
<path d="M529.2 945.6L588.7 737.8H796.5L743.2 924.1C739.6 936.8 727.9 945.6 714.6 945.6H529.2Z" fill="#35B050"/>
<path opacity="0.7" d="M556.6 925L604.3 758.5H769.2L727.7 903.5C724.1 916.2 712.4 925 699.1 925H556.6Z" fill="#35B050"/>
</g>
<defs>
<linearGradient id="paint0_linear_8_2" x1="993.914" y1="238.474" x2="1524.68" y2="769.235" gradientUnits="userSpaceOnUse">
<stop stop-color="white" stop-opacity="0.05"/>
<stop offset="0.0153207" stop-color="#EAF7ED" stop-opacity="0.0813891"/>
<stop offset="0.0501337" stop-color="#C0E6C8" stop-opacity="0.1527"/>
<stop offset="0.0879103" stop-color="#9AD8A8" stop-opacity="0.2301"/>
<stop offset="0.1282" stop-color="#7BCB8C" stop-opacity="0.3127"/>
<stop offset="0.1718" stop-color="#61C176" stop-opacity="0.4019"/>
<stop offset="0.2199" stop-color="#4DBA65" stop-opacity="0.5005"/>
<stop offset="0.275" stop-color="#40B459" stop-opacity="0.6134"/>
<stop offset="0.3431" stop-color="#37B152" stop-opacity="0.753"/>
<stop offset="0.4637" stop-color="#35B050"/>
<stop offset="0.6731" stop-color="#37B152" stop-opacity="0.6134"/>
<stop offset="0.7486" stop-color="#3EB358" stop-opacity="0.4742"/>
<stop offset="0.8024" stop-color="#49B862" stop-opacity="0.3748"/>
<stop offset="0.8459" stop-color="#5ABF70" stop-opacity="0.2945"/>
<stop offset="0.8831" stop-color="#70C783" stop-opacity="0.2258"/>
<stop offset="0.9161" stop-color="#8CD29B" stop-opacity="0.1649"/>
<stop offset="0.946" stop-color="#ACDFB7" stop-opacity="0.1098"/>
<stop offset="0.973" stop-color="#D1EDD7" stop-opacity="0.0598971"/>
<stop offset="0.9974" stop-color="#FAFDFB" stop-opacity="0.0147705"/>
<stop offset="1" stop-color="white" stop-opacity="0.01"/>
</linearGradient>
</defs>
</svg>
